<?xml version="1.0"?>
<svg xmlns="http://www.w3.org/2000/svg" xmlns:xlink="http://www.w3.org/1999/xlink" version="1.1" width="520px" height="520px" viewBox="0 0 520 520"><rect x="0" y="0" width="520" height="520" fill="#ffffff" fill-opacity="1"/><path fill="#000000" fill-opacity="1" d="M10,10L150,10L150,30L10,30ZM170,10L230,10L230,30L170,30ZM250,10L290,10L290,30L250,30ZM370,10L510,10L510,30L370,30ZM10,30L30,30L30,50L10,50ZM130,30L150,30L150,50L130,50ZM170,30L230,30L230,50L170,50ZM290,30L310,30L310,50L290,50ZM330,30L350,30L350,50L330,50ZM370,30L390,30L390,50L370,50ZM490,30L510,30L510,50L490,50ZM10,50L30,50L30,70L10,70ZM50,50L110,50L110,70L50,70ZM130,50L150,50L150,70L130,70ZM170,50L190,50L190,70L170,70ZM210,50L250,50L250,70L210,70ZM270,50L310,50L310,70L270,70ZM330,50L350,50L350,70L330,70ZM370,50L390,50L390,70L370,70ZM410,50L470,50L470,70L410,70ZM490,50L510,50L510,70L490,70ZM10,70L30,70L30,90L10,90ZM50,70L110,70L110,90L50,90ZM130,70L150,70L150,90L130,90ZM170,70L210,70L210,90L170,90ZM230,70L250,70L250,90L230,90ZM270,70L290,70L290,90L270,90ZM310,70L350,70L350,90L310,90ZM370,70L390,70L390,90L370,90ZM410,70L470,70L470,90L410,90ZM490,70L510,70L510,90L490,90ZM10,90L30,90L30,110L10,110ZM50,90L110,90L110,110L50,110ZM130,90L150,90L150,110L130,110ZM270,90L350,90L350,110L270,110ZM370,90L390,90L390,110L370,110ZM410,90L470,90L470,110L410,110ZM490,90L510,90L510,110L490,110ZM10,110L30,110L30,130L10,130ZM130,110L150,110L150,130L130,130ZM170,110L190,110L190,130L170,130ZM230,110L270,110L270,130L230,130ZM290,110L330,110L330,130L290,130ZM370,110L390,110L390,130L370,130ZM490,110L510,110L510,130L490,130ZM10,130L150,130L150,150L10,150ZM170,130L190,130L190,150L170,150ZM210,130L230,130L230,150L210,150ZM250,130L270,130L270,150L250,150ZM290,130L310,130L310,150L290,150ZM330,130L350,130L350,150L330,150ZM370,130L510,130L510,150L370,150ZM190,150L210,150L210,170L190,170ZM250,150L310,150L310,170L250,170ZM330,150L350,150L350,170L330,170ZM10,170L50,170L50,190L10,190ZM90,170L150,170L150,190L90,190ZM230,170L250,170L250,190L230,190ZM270,170L310,170L310,190L270,190ZM390,170L410,170L410,190L390,190ZM430,170L510,170L510,190L430,190ZM30,190L50,190L50,210L30,210ZM110,190L130,190L130,210L110,210ZM190,190L230,190L230,210L190,210ZM250,190L310,190L310,210L250,210ZM350,190L450,190L450,210L350,210ZM490,190L510,190L510,210L490,210ZM10,210L30,210L30,230L10,230ZM50,210L90,210L90,230L50,230ZM110,210L190,210L190,230L110,230ZM230,210L290,210L290,230L230,230ZM310,210L330,210L330,230L310,230ZM350,210L370,210L370,230L350,230ZM390,210L430,210L430,230L390,230ZM470,210L510,210L510,230L470,230ZM10,230L30,230L30,250L10,250ZM50,230L90,230L90,250L50,250ZM110,230L130,230L130,250L110,250ZM150,230L190,230L190,250L150,250ZM210,230L250,230L250,250L210,250ZM290,230L310,230L310,250L290,250ZM330,230L350,230L350,250L330,250ZM370,230L390,230L390,250L370,250ZM450,230L510,230L510,250L450,250ZM50,250L110,250L110,270L50,270ZM130,250L170,250L170,270L130,270ZM210,250L230,250L230,270L210,270ZM250,250L310,250L310,270L250,270ZM370,250L390,250L390,270L370,270ZM470,250L510,250L510,270L470,270ZM10,270L110,270L110,290L10,290ZM170,270L210,270L210,290L170,290ZM270,270L350,270L350,290L270,290ZM430,270L450,270L450,290L430,290ZM470,270L510,270L510,290L470,290ZM50,290L70,290L70,310L50,310ZM90,290L110,290L110,310L90,310ZM130,290L150,290L150,310L130,310ZM170,290L210,290L210,310L170,310ZM270,290L290,290L290,310L270,310ZM330,290L370,290L370,310L330,310ZM410,290L430,290L430,310L410,310ZM50,310L70,310L70,330L50,330ZM150,310L210,310L210,330L150,330ZM250,310L270,310L270,330L250,330ZM290,310L310,310L310,330L290,330ZM330,310L350,310L350,330L330,330ZM370,310L390,310L390,330L370,330ZM450,310L470,310L470,330L450,330ZM10,330L170,330L170,350L10,350ZM210,330L250,330L250,350L210,350ZM270,330L310,330L310,350L270,350ZM330,330L430,330L430,350L330,350ZM490,330L510,330L510,350L490,350ZM170,350L190,350L190,370L170,370ZM250,350L310,350L310,370L250,370ZM330,350L350,350L350,370L330,370ZM410,350L450,350L450,370L410,370ZM490,350L510,350L510,370L490,370ZM10,370L150,370L150,390L10,390ZM230,370L290,370L290,390L230,390ZM310,370L350,370L350,390L310,390ZM370,370L390,370L390,390L370,390ZM410,370L430,370L430,390L410,390ZM10,390L30,390L30,410L10,410ZM130,390L150,390L150,410L130,410ZM170,390L190,390L190,410L170,410ZM210,390L250,390L250,410L210,410ZM290,390L350,390L350,410L290,410ZM410,390L510,390L510,410L410,410ZM10,410L30,410L30,430L10,430ZM50,410L110,410L110,430L50,430ZM130,410L150,410L150,430L130,430ZM170,410L230,410L230,430L170,430ZM250,410L310,410L310,430L250,430ZM330,410L430,410L430,430L330,430ZM10,430L30,430L30,450L10,450ZM50,430L110,430L110,450L50,450ZM130,430L150,430L150,450L130,450ZM190,430L210,430L210,450L190,450ZM270,430L390,430L390,450L270,450ZM470,430L510,430L510,450L470,450ZM10,450L30,450L30,470L10,470ZM50,450L110,450L110,470L50,470ZM130,450L150,450L150,470L130,470ZM210,450L230,450L230,470L210,470ZM310,450L350,450L350,470L310,470ZM370,450L430,450L430,470L370,470ZM470,450L490,450L490,470L470,470ZM10,470L30,470L30,490L10,490ZM130,470L150,470L150,490L130,490ZM170,470L190,470L190,490L170,490ZM210,470L230,470L230,490L210,490ZM250,470L270,470L270,490L250,490ZM310,470L330,470L330,490L310,490ZM350,470L370,470L370,490L350,490ZM410,470L450,470L450,490L410,490ZM490,470L510,470L510,490L490,490ZM10,490L150,490L150,510L10,510ZM170,490L190,490L190,510L170,510ZM210,490L350,490L350,510L210,510ZM390,490L430,490L430,510L390,510ZM450,490L510,490L510,510L450,510Z"/></svg>
